solid Stopper
facet normal 1.000000e+000 0.000000e+000 0.000000e+000
    outer loop
        vertex 2.000000e+001 -1.000000e+001 -8.673617e-016
        vertex 2.000000e+001 1.000000e+001 -8.673617e-016
        vertex 2.000000e+001 -1.000000e+001 5.000000e+000
    endloop
endfacet
facet normal 1.000000e+000 -0.000000e+000 0.000000e+000
    outer loop
        vertex 2.000000e+001 -1.000000e+001 5.000000e+000
        vertex 2.000000e+001 1.000000e+001 -8.673617e-016
        vertex 2.000000e+001 1.000000e+001 5.000000e+000
    endloop
endfacet
facet normal 0.000000e+000 1.000000e+000 0.000000e+000
    outer loop
        vertex 2.000000e+001 1.000000e+001 -8.673617e-016
        vertex -2.000000e+001 1.000000e+001 -8.673617e-016
        vertex -2.000000e+001 1.000000e+001 5.000000e+000
    endloop
endfacet
facet normal 0.000000e+000 1.000000e+000 -0.000000e+000
    outer loop
        vertex 2.000000e+001 1.000000e+001 -8.673617e-016
        vertex -2.000000e+001 1.000000e+001 5.000000e+000
        vertex 2.000000e+001 1.000000e+001 5.000000e+000
    endloop
endfacet
facet normal 6.087615e-001 -7.933533e-001 0.000000e+000
    outer loop
        vertex -1.176777e+001 1.767767e+000 -8.673617e-016
        vertex -1.125000e+001 2.165064e+000 -8.673617e-016
        vertex -1.176777e+001 1.767767e+000 5.000000e+000
    endloop
endfacet
facet normal 6.087615e-001 -7.933533e-001 0.000000e+000
    outer loop
        vertex -1.176777e+001 1.767767e+000 5.000000e+000
        vertex -1.125000e+001 2.165064e+000 -8.673617e-016
        vertex -1.125000e+001 2.165064e+000 5.000000e+000
    endloop
endfacet
facet normal 3.826829e-001 -9.238797e-001 0.000000e+000
    outer loop
        vertex -1.125000e+001 2.165064e+000 -8.673617e-016
        vertex -1.064705e+001 2.414814e+000 -8.673617e-016
        vertex -1.125000e+001 2.165064e+000 5.000000e+000
    endloop
endfacet
facet normal 3.826829e-001 -9.238797e-001 0.000000e+000
    outer loop
        vertex -1.125000e+001 2.165064e+000 5.000000e+000
        vertex -1.064705e+001 2.414814e+000 -8.673617e-016
        vertex -1.064705e+001 2.414814e+000 5.000000e+000
    endloop
endfacet
facet normal 1.305265e-001 -9.914448e-001 0.000000e+000
    outer loop
        vertex -1.064705e+001 2.414814e+000 -8.673617e-016
        vertex -1.000000e+001 2.500000e+000 -8.673617e-016
        vertex -1.064705e+001 2.414814e+000 5.000000e+000
    endloop
endfacet
facet normal 1.305265e-001 -9.914448e-001 0.000000e+000
    outer loop
        vertex -1.064705e+001 2.414814e+000 5.000000e+000
        vertex -1.000000e+001 2.500000e+000 -8.673617e-016
        vertex -1.000000e+001 2.500000e+000 5.000000e+000
    endloop
endfacet
facet normal -1.305263e-001 -9.914448e-001 0.000000e+000
    outer loop
        vertex -9.352952e+000 2.414814e+000 -8.673617e-016
        vertex -9.352952e+000 2.414814e+000 5.000000e+000
        vertex -1.000000e+001 2.500000e+000 -8.673617e-016
    endloop
endfacet
facet normal -1.305263e-001 -9.914448e-001 0.000000e+000
    outer loop
        vertex -9.352952e+000 2.414814e+000 5.000000e+000
        vertex -1.000000e+001 2.500000e+000 5.000000e+000
        vertex -1.000000e+001 2.500000e+000 -8.673617e-016
    endloop
endfacet
facet normal -3.826834e-001 -9.238796e-001 0.000000e+000
    outer loop
        vertex -8.750000e+000 2.165064e+000 -8.673617e-016
        vertex -8.750000e+000 2.165064e+000 5.000000e+000
        vertex -9.352952e+000 2.414814e+000 -8.673617e-016
    endloop
endfacet
facet normal -3.826834e-001 -9.238796e-001 0.000000e+000
    outer loop
        vertex -8.750000e+000 2.165064e+000 5.000000e+000
        vertex -9.352952e+000 2.414814e+000 5.000000e+000
        vertex -9.352952e+000 2.414814e+000 -8.673617e-016
    endloop
endfacet
facet normal -6.087615e-001 -7.933533e-001 0.000000e+000
    outer loop
        vertex -8.232233e+000 1.767767e+000 -8.673617e-016
        vertex -8.232233e+000 1.767767e+000 5.000000e+000
        vertex -8.750000e+000 2.165064e+000 -8.673617e-016
    endloop
endfacet
facet normal -6.087615e-001 -7.933533e-001 0.000000e+000
    outer loop
        vertex -8.232233e+000 1.767767e+000 5.000000e+000
        vertex -8.750000e+000 2.165064e+000 5.000000e+000
        vertex -8.750000e+000 2.165064e+000 -8.673617e-016
    endloop
endfacet
facet normal -7.933534e-001 -6.087613e-001 0.000000e+000
    outer loop
        vertex -7.834937e+000 1.250000e+000 -8.673617e-016
        vertex -7.834937e+000 1.250000e+000 5.000000e+000
        vertex -8.232233e+000 1.767767e+000 -8.673617e-016
    endloop
endfacet
facet normal -7.933534e-001 -6.087613e-001 0.000000e+000
    outer loop
        vertex -7.834937e+000 1.250000e+000 5.000000e+000
        vertex -8.232233e+000 1.767767e+000 5.000000e+000
        vertex -8.232233e+000 1.767767e+000 -8.673617e-016
    endloop
endfacet
facet normal -9.238795e-001 -3.826835e-001 0.000000e+000
    outer loop
        vertex -7.585186e+000 6.470476e-001 -8.673617e-016
        vertex -7.585186e+000 6.470476e-001 5.000000e+000
        vertex -7.834937e+000 1.250000e+000 -8.673617e-016
    endloop
endfacet
facet normal -9.238795e-001 -3.826835e-001 0.000000e+000
    outer loop
        vertex -7.585186e+000 6.470476e-001 5.000000e+000
        vertex -7.834937e+000 1.250000e+000 5.000000e+000
        vertex -7.834937e+000 1.250000e+000 -8.673617e-016
    endloop
endfacet
facet normal -9.914448e-001 -1.305263e-001 0.000000e+000
    outer loop
        vertex -7.500000e+000 0.000000e+000 -8.673617e-016
        vertex -7.500000e+000 0.000000e+000 5.000000e+000
        vertex -7.585186e+000 6.470476e-001 -8.673617e-016
    endloop
endfacet
facet normal -9.914448e-001 -1.305263e-001 0.000000e+000
    outer loop
        vertex -7.500000e+000 0.000000e+000 5.000000e+000
        vertex -7.585186e+000 6.470476e-001 5.000000e+000
        vertex -7.585186e+000 6.470476e-001 -8.673617e-016
    endloop
endfacet
facet normal -9.914448e-001 1.305263e-001 0.000000e+000
    outer loop
        vertex -7.585186e+000 -6.470476e-001 -8.673617e-016
        vertex -7.585186e+000 -6.470476e-001 5.000000e+000
        vertex -7.500000e+000 0.000000e+000 -8.673617e-016
    endloop
endfacet
facet normal -9.914448e-001 1.305263e-001 0.000000e+000
    outer loop
        vertex -7.585186e+000 -6.470476e-001 5.000000e+000
        vertex -7.500000e+000 0.000000e+000 5.000000e+000
        vertex -7.500000e+000 0.000000e+000 -8.673617e-016
    endloop
endfacet
facet normal -9.238795e-001 3.826835e-001 0.000000e+000
    outer loop
        vertex -7.834937e+000 -1.250000e+000 -8.673617e-016
        vertex -7.834937e+000 -1.250000e+000 5.000000e+000
        vertex -7.585186e+000 -6.470476e-001 -8.673617e-016
    endloop
endfacet
facet normal -9.238795e-001 3.826835e-001 0.000000e+000
    outer loop
        vertex -7.834937e+000 -1.250000e+000 5.000000e+000
        vertex -7.585186e+000 -6.470476e-001 5.000000e+000
        vertex -7.585186e+000 -6.470476e-001 -8.673617e-016
    endloop
endfacet
facet normal -7.933534e-001 6.087613e-001 0.000000e+000
    outer loop
        vertex -8.232233e+000 -1.767767e+000 -8.673617e-016
        vertex -8.232233e+000 -1.767767e+000 5.000000e+000
        vertex -7.834937e+000 -1.250000e+000 -8.673617e-016
    endloop
endfacet
facet normal -7.933534e-001 6.087613e-001 0.000000e+000
    outer loop
        vertex -8.232233e+000 -1.767767e+000 5.000000e+000
        vertex -7.834937e+000 -1.250000e+000 5.000000e+000
        vertex -7.834937e+000 -1.250000e+000 -8.673617e-016
    endloop
endfacet
facet normal -6.087615e-001 7.933533e-001 0.000000e+000
    outer loop
        vertex -8.750000e+000 -2.165064e+000 -8.673617e-016
        vertex -8.750000e+000 -2.165064e+000 5.000000e+000
        vertex -8.232233e+000 -1.767767e+000 -8.673617e-016
    endloop
endfacet
facet normal -6.087615e-001 7.933533e-001 0.000000e+000
    outer loop
        vertex -8.750000e+000 -2.165064e+000 5.000000e+000
        vertex -8.232233e+000 -1.767767e+000 5.000000e+000
        vertex -8.232233e+000 -1.767767e+000 -8.673617e-016
    endloop
endfacet
facet normal -3.826834e-001 9.238796e-001 0.000000e+000
    outer loop
        vertex -9.352952e+000 -2.414814e+000 -8.673617e-016
        vertex -9.352952e+000 -2.414814e+000 5.000000e+000
        vertex -8.750000e+000 -2.165064e+000 -8.673617e-016
    endloop
endfacet
facet normal -3.826834e-001 9.238796e-001 0.000000e+000
    outer loop
        vertex -9.352952e+000 -2.414814e+000 5.000000e+000
        vertex -8.750000e+000 -2.165064e+000 5.000000e+000
        vertex -8.750000e+000 -2.165064e+000 -8.673617e-016
    endloop
endfacet
facet normal -1.305263e-001 9.914448e-001 0.000000e+000
    outer loop
        vertex -1.000000e+001 -2.500000e+000 -8.673617e-016
        vertex -1.000000e+001 -2.500000e+000 5.000000e+000
        vertex -9.352952e+000 -2.414814e+000 -8.673617e-016
    endloop
endfacet
facet normal -1.305263e-001 9.914448e-001 0.000000e+000
    outer loop
        vertex -1.000000e+001 -2.500000e+000 5.000000e+000
        vertex -9.352952e+000 -2.414814e+000 5.000000e+000
        vertex -9.352952e+000 -2.414814e+000 -8.673617e-016
    endloop
endfacet
facet normal 1.305265e-001 9.914448e-001 -0.000000e+000
    outer loop
        vertex -1.000000e+001 -2.500000e+000 -8.673617e-016
        vertex -1.064705e+001 -2.414814e+000 -8.673617e-016
        vertex -1.000000e+001 -2.500000e+000 5.000000e+000
    endloop
endfacet
facet normal 1.305265e-001 9.914448e-001 0.000000e+000
    outer loop
        vertex -1.000000e+001 -2.500000e+000 5.000000e+000
        vertex -1.064705e+001 -2.414814e+000 -8.673617e-016
        vertex -1.064705e+001 -2.414814e+000 5.000000e+000
    endloop
endfacet
facet normal 3.826829e-001 9.238797e-001 -0.000000e+000
    outer loop
        vertex -1.064705e+001 -2.414814e+000 -8.673617e-016
        vertex -1.125000e+001 -2.165064e+000 -8.673617e-016
        vertex -1.064705e+001 -2.414814e+000 5.000000e+000
    endloop
endfacet
facet normal 3.826829e-001 9.238797e-001 0.000000e+000
    outer loop
        vertex -1.064705e+001 -2.414814e+000 5.000000e+000
        vertex -1.125000e+001 -2.165064e+000 -8.673617e-016
        vertex -1.125000e+001 -2.165064e+000 5.000000e+000
    endloop
endfacet
facet normal 6.087615e-001 7.933533e-001 -0.000000e+000
    outer loop
        vertex -1.125000e+001 -2.165064e+000 -8.673617e-016
        vertex -1.176777e+001 -1.767767e+000 -8.673617e-016
        vertex -1.125000e+001 -2.165064e+000 5.000000e+000
    endloop
endfacet
facet normal 6.087615e-001 7.933533e-001 0.000000e+000
    outer loop
        vertex -1.125000e+001 -2.165064e+000 5.000000e+000
        vertex -1.176777e+001 -1.767767e+000 -8.673617e-016
        vertex -1.176777e+001 -1.767767e+000 5.000000e+000
    endloop
endfacet
facet normal 7.933538e-001 6.087608e-001 -0.000000e+000
    outer loop
        vertex -1.176777e+001 -1.767767e+000 -8.673617e-016
        vertex -1.216506e+001 -1.250000e+000 -8.673617e-016
        vertex -1.176777e+001 -1.767767e+000 5.000000e+000
    endloop
endfacet
facet normal 7.933538e-001 6.087608e-001 0.000000e+000
    outer loop
        vertex -1.176777e+001 -1.767767e+000 5.000000e+000
        vertex -1.216506e+001 -1.250000e+000 -8.673617e-016
        vertex -1.216506e+001 -1.250000e+000 5.000000e+000
    endloop
endfacet
facet normal 9.238790e-001 3.826847e-001 -0.000000e+000
    outer loop
        vertex -1.216506e+001 -1.250000e+000 -8.673617e-016
        vertex -1.241481e+001 -6.470476e-001 -8.673617e-016
        vertex -1.216506e+001 -1.250000e+000 5.000000e+000
    endloop
endfacet
facet normal 9.238790e-001 3.826847e-001 0.000000e+000
    outer loop
        vertex -1.216506e+001 -1.250000e+000 5.000000e+000
        vertex -1.241481e+001 -6.470476e-001 -8.673617e-016
        vertex -1.241481e+001 -6.470476e-001 5.000000e+000
    endloop
endfacet
facet normal 9.914449e-001 1.305256e-001 -0.000000e+000
    outer loop
        vertex -1.241481e+001 -6.470476e-001 -8.673617e-016
        vertex -1.250000e+001 0.000000e+000 -8.673617e-016
        vertex -1.241481e+001 -6.470476e-001 5.000000e+000
    endloop
endfacet
facet normal 9.914449e-001 1.305256e-001 0.000000e+000
    outer loop
        vertex -1.241481e+001 -6.470476e-001 5.000000e+000
        vertex -1.250000e+001 0.000000e+000 -8.673617e-016
        vertex -1.250000e+001 0.000000e+000 5.000000e+000
    endloop
endfacet
facet normal 9.914449e-001 -1.305256e-001 0.000000e+000
    outer loop
        vertex -1.250000e+001 0.000000e+000 -8.673617e-016
        vertex -1.241481e+001 6.470476e-001 -8.673617e-016
        vertex -1.250000e+001 0.000000e+000 5.000000e+000
    endloop
endfacet
facet normal 9.914449e-001 -1.305256e-001 0.000000e+000
    outer loop
        vertex -1.250000e+001 0.000000e+000 5.000000e+000
        vertex -1.241481e+001 6.470476e-001 -8.673617e-016
        vertex -1.241481e+001 6.470476e-001 5.000000e+000
    endloop
endfacet
facet normal 9.238790e-001 -3.826847e-001 0.000000e+000
    outer loop
        vertex -1.241481e+001 6.470476e-001 -8.673617e-016
        vertex -1.216506e+001 1.250000e+000 -8.673617e-016
        vertex -1.241481e+001 6.470476e-001 5.000000e+000
    endloop
endfacet
facet normal 9.238790e-001 -3.826847e-001 0.000000e+000
    outer loop
        vertex -1.241481e+001 6.470476e-001 5.000000e+000
        vertex -1.216506e+001 1.250000e+000 -8.673617e-016
        vertex -1.216506e+001 1.250000e+000 5.000000e+000
    endloop
endfacet
facet normal 7.933538e-001 -6.087608e-001 0.000000e+000
    outer loop
        vertex -1.216506e+001 1.250000e+000 -8.673617e-016
        vertex -1.176777e+001 1.767767e+000 -8.673617e-016
        vertex -1.216506e+001 1.250000e+000 5.000000e+000
    endloop
endfacet
facet normal 7.933538e-001 -6.087608e-001 0.000000e+000
    outer loop
        vertex -1.216506e+001 1.250000e+000 5.000000e+000
        vertex -1.176777e+001 1.767767e+000 -8.673617e-016
        vertex -1.176777e+001 1.767767e+000 5.000000e+000
    endloop
endfacet
facet normal -1.000000e+000 0.000000e+000 0.000000e+000
    outer loop
        vertex -2.000000e+001 -1.000000e+001 -8.673617e-016
        vertex -2.000000e+001 -1.000000e+001 5.000000e+000
        vertex -2.000000e+001 1.000000e+001 -8.673617e-016
    endloop
endfacet
facet normal -1.000000e+000 0.000000e+000 0.000000e+000
    outer loop
        vertex -2.000000e+001 -1.000000e+001 5.000000e+000
        vertex -2.000000e+001 1.000000e+001 5.000000e+000
        vertex -2.000000e+001 1.000000e+001 -8.673617e-016
    endloop
endfacet
facet normal 0.000000e+000 -1.000000e+000 0.000000e+000
    outer loop
        vertex -2.000000e+001 -1.000000e+001 -8.673617e-016
        vertex 2.000000e+001 -1.000000e+001 -8.673617e-016
        vertex 2.000000e+001 -1.000000e+001 5.000000e+000
    endloop
endfacet
facet normal 0.000000e+000 -1.000000e+000 0.000000e+000
    outer loop
        vertex -2.000000e+001 -1.000000e+001 -8.673617e-016
        vertex 2.000000e+001 -1.000000e+001 5.000000e+000
        vertex -2.000000e+001 -1.000000e+001 5.000000e+000
    endloop
endfacet
facet normal -6.087615e-001 7.933533e-001 0.000000e+000
    outer loop
        vertex 1.125000e+001 -2.165064e+000 -8.673617e-016
        vertex 1.125000e+001 -2.165064e+000 5.000000e+000
        vertex 1.176777e+001 -1.767767e+000 -8.673617e-016
    endloop
endfacet
facet normal -6.087615e-001 7.933533e-001 0.000000e+000
    outer loop
        vertex 1.125000e+001 -2.165064e+000 5.000000e+000
        vertex 1.176777e+001 -1.767767e+000 5.000000e+000
        vertex 1.176777e+001 -1.767767e+000 -8.673617e-016
    endloop
endfacet
facet normal -3.826829e-001 9.238797e-001 0.000000e+000
    outer loop
        vertex 1.064705e+001 -2.414814e+000 -8.673617e-016
        vertex 1.064705e+001 -2.414814e+000 5.000000e+000
        vertex 1.125000e+001 -2.165064e+000 -8.673617e-016
    endloop
endfacet
facet normal -3.826829e-001 9.238797e-001 0.000000e+000
    outer loop
        vertex 1.064705e+001 -2.414814e+000 5.000000e+000
        vertex 1.125000e+001 -2.165064e+000 5.000000e+000
        vertex 1.125000e+001 -2.165064e+000 -8.673617e-016
    endloop
endfacet
facet normal -1.305265e-001 9.914448e-001 0.000000e+000
    outer loop
        vertex 1.000000e+001 -2.500000e+000 -8.673617e-016
        vertex 1.000000e+001 -2.500000e+000 5.000000e+000
        vertex 1.064705e+001 -2.414814e+000 -8.673617e-016
    endloop
endfacet
facet normal -1.305265e-001 9.914448e-001 0.000000e+000
    outer loop
        vertex 1.000000e+001 -2.500000e+000 5.000000e+000
        vertex 1.064705e+001 -2.414814e+000 5.000000e+000
        vertex 1.064705e+001 -2.414814e+000 -8.673617e-016
    endloop
endfacet
facet normal 1.305263e-001 9.914448e-001 -0.000000e+000
    outer loop
        vertex 1.000000e+001 -2.500000e+000 -8.673617e-016
        vertex 9.352952e+000 -2.414814e+000 -8.673617e-016
        vertex 1.000000e+001 -2.500000e+000 5.000000e+000
    endloop
endfacet
facet normal 1.305263e-001 9.914448e-001 0.000000e+000
    outer loop
        vertex 1.000000e+001 -2.500000e+000 5.000000e+000
        vertex 9.352952e+000 -2.414814e+000 -8.673617e-016
        vertex 9.352952e+000 -2.414814e+000 5.000000e+000
    endloop
endfacet
facet normal 3.826834e-001 9.238796e-001 -0.000000e+000
    outer loop
        vertex 9.352952e+000 -2.414814e+000 -8.673617e-016
        vertex 8.750000e+000 -2.165064e+000 -8.673617e-016
        vertex 9.352952e+000 -2.414814e+000 5.000000e+000
    endloop
endfacet
facet normal 3.826834e-001 9.238796e-001 0.000000e+000
    outer loop
        vertex 9.352952e+000 -2.414814e+000 5.000000e+000
        vertex 8.750000e+000 -2.165064e+000 -8.673617e-016
        vertex 8.750000e+000 -2.165064e+000 5.000000e+000
    endloop
endfacet
facet normal 6.087615e-001 7.933533e-001 -0.000000e+000
    outer loop
        vertex 8.750000e+000 -2.165064e+000 -8.673617e-016
        vertex 8.232233e+000 -1.767767e+000 -8.673617e-016
        vertex 8.750000e+000 -2.165064e+000 5.000000e+000
    endloop
endfacet
facet normal 6.087615e-001 7.933533e-001 0.000000e+000
    outer loop
        vertex 8.750000e+000 -2.165064e+000 5.000000e+000
        vertex 8.232233e+000 -1.767767e+000 -8.673617e-016
        vertex 8.232233e+000 -1.767767e+000 5.000000e+000
    endloop
endfacet
facet normal 7.933534e-001 6.087613e-001 -0.000000e+000
    outer loop
        vertex 8.232233e+000 -1.767767e+000 -8.673617e-016
        vertex 7.834937e+000 -1.250000e+000 -8.673617e-016
        vertex 8.232233e+000 -1.767767e+000 5.000000e+000
    endloop
endfacet
facet normal 7.933534e-001 6.087613e-001 0.000000e+000
    outer loop
        vertex 8.232233e+000 -1.767767e+000 5.000000e+000
        vertex 7.834937e+000 -1.250000e+000 -8.673617e-016
        vertex 7.834937e+000 -1.250000e+000 5.000000e+000
    endloop
endfacet
facet normal 9.238795e-001 3.826835e-001 -0.000000e+000
    outer loop
        vertex 7.834937e+000 -1.250000e+000 -8.673617e-016
        vertex 7.585186e+000 -6.470476e-001 -8.673617e-016
        vertex 7.834937e+000 -1.250000e+000 5.000000e+000
    endloop
endfacet
facet normal 9.238795e-001 3.826835e-001 0.000000e+000
    outer loop
        vertex 7.834937e+000 -1.250000e+000 5.000000e+000
        vertex 7.585186e+000 -6.470476e-001 -8.673617e-016
        vertex 7.585186e+000 -6.470476e-001 5.000000e+000
    endloop
endfacet
facet normal 9.914448e-001 1.305263e-001 -0.000000e+000
    outer loop
        vertex 7.585186e+000 -6.470476e-001 -8.673617e-016
        vertex 7.500000e+000 0.000000e+000 -8.673617e-016
        vertex 7.585186e+000 -6.470476e-001 5.000000e+000
    endloop
endfacet
facet normal 9.914448e-001 1.305263e-001 0.000000e+000
    outer loop
        vertex 7.585186e+000 -6.470476e-001 5.000000e+000
        vertex 7.500000e+000 0.000000e+000 -8.673617e-016
        vertex 7.500000e+000 0.000000e+000 5.000000e+000
    endloop
endfacet
facet normal 9.914448e-001 -1.305263e-001 0.000000e+000
    outer loop
        vertex 7.500000e+000 0.000000e+000 -8.673617e-016
        vertex 7.585186e+000 6.470476e-001 -8.673617e-016
        vertex 7.500000e+000 0.000000e+000 5.000000e+000
    endloop
endfacet
facet normal 9.914448e-001 -1.305263e-001 0.000000e+000
    outer loop
        vertex 7.500000e+000 0.000000e+000 5.000000e+000
        vertex 7.585186e+000 6.470476e-001 -8.673617e-016
        vertex 7.585186e+000 6.470476e-001 5.000000e+000
    endloop
endfacet
facet normal 9.238795e-001 -3.826835e-001 0.000000e+000
    outer loop
        vertex 7.585186e+000 6.470476e-001 -8.673617e-016
        vertex 7.834937e+000 1.250000e+000 -8.673617e-016
        vertex 7.585186e+000 6.470476e-001 5.000000e+000
    endloop
endfacet
facet normal 9.238795e-001 -3.826835e-001 0.000000e+000
    outer loop
        vertex 7.585186e+000 6.470476e-001 5.000000e+000
        vertex 7.834937e+000 1.250000e+000 -8.673617e-016
        vertex 7.834937e+000 1.250000e+000 5.000000e+000
    endloop
endfacet
facet normal 7.933534e-001 -6.087613e-001 0.000000e+000
    outer loop
        vertex 7.834937e+000 1.250000e+000 -8.673617e-016
        vertex 8.232233e+000 1.767767e+000 -8.673617e-016
        vertex 7.834937e+000 1.250000e+000 5.000000e+000
    endloop
endfacet
facet normal 7.933534e-001 -6.087613e-001 0.000000e+000
    outer loop
        vertex 7.834937e+000 1.250000e+000 5.000000e+000
        vertex 8.232233e+000 1.767767e+000 -8.673617e-016
        vertex 8.232233e+000 1.767767e+000 5.000000e+000
    endloop
endfacet
facet normal 6.087615e-001 -7.933533e-001 0.000000e+000
    outer loop
        vertex 8.232233e+000 1.767767e+000 -8.673617e-016
        vertex 8.750000e+000 2.165064e+000 -8.673617e-016
        vertex 8.232233e+000 1.767767e+000 5.000000e+000
    endloop
endfacet
facet normal 6.087615e-001 -7.933533e-001 0.000000e+000
    outer loop
        vertex 8.232233e+000 1.767767e+000 5.000000e+000
        vertex 8.750000e+000 2.165064e+000 -8.673617e-016
        vertex 8.750000e+000 2.165064e+000 5.000000e+000
    endloop
endfacet
facet normal 3.826834e-001 -9.238796e-001 0.000000e+000
    outer loop
        vertex 8.750000e+000 2.165064e+000 -8.673617e-016
        vertex 9.352952e+000 2.414814e+000 -8.673617e-016
        vertex 8.750000e+000 2.165064e+000 5.000000e+000
    endloop
endfacet
facet normal 3.826834e-001 -9.238796e-001 0.000000e+000
    outer loop
        vertex 8.750000e+000 2.165064e+000 5.000000e+000
        vertex 9.352952e+000 2.414814e+000 -8.673617e-016
        vertex 9.352952e+000 2.414814e+000 5.000000e+000
    endloop
endfacet
facet normal 1.305263e-001 -9.914448e-001 0.000000e+000
    outer loop
        vertex 9.352952e+000 2.414814e+000 -8.673617e-016
        vertex 1.000000e+001 2.500000e+000 -8.673617e-016
        vertex 9.352952e+000 2.414814e+000 5.000000e+000
    endloop
endfacet
facet normal 1.305263e-001 -9.914448e-001 0.000000e+000
    outer loop
        vertex 9.352952e+000 2.414814e+000 5.000000e+000
        vertex 1.000000e+001 2.500000e+000 -8.673617e-016
        vertex 1.000000e+001 2.500000e+000 5.000000e+000
    endloop
endfacet
facet normal -1.305265e-001 -9.914448e-001 0.000000e+000
    outer loop
        vertex 1.064705e+001 2.414814e+000 -8.673617e-016
        vertex 1.064705e+001 2.414814e+000 5.000000e+000
        vertex 1.000000e+001 2.500000e+000 -8.673617e-016
    endloop
endfacet
facet normal -1.305265e-001 -9.914448e-001 0.000000e+000
    outer loop
        vertex 1.064705e+001 2.414814e+000 5.000000e+000
        vertex 1.000000e+001 2.500000e+000 5.000000e+000
        vertex 1.000000e+001 2.500000e+000 -8.673617e-016
    endloop
endfacet
facet normal -3.826829e-001 -9.238797e-001 0.000000e+000
    outer loop
        vertex 1.125000e+001 2.165064e+000 -8.673617e-016
        vertex 1.125000e+001 2.165064e+000 5.000000e+000
        vertex 1.064705e+001 2.414814e+000 -8.673617e-016
    endloop
endfacet
facet normal -3.826829e-001 -9.238797e-001 0.000000e+000
    outer loop
        vertex 1.125000e+001 2.165064e+000 5.000000e+000
        vertex 1.064705e+001 2.414814e+000 5.000000e+000
        vertex 1.064705e+001 2.414814e+000 -8.673617e-016
    endloop
endfacet
facet normal -6.087615e-001 -7.933533e-001 0.000000e+000
    outer loop
        vertex 1.176777e+001 1.767767e+000 -8.673617e-016
        vertex 1.176777e+001 1.767767e+000 5.000000e+000
        vertex 1.125000e+001 2.165064e+000 -8.673617e-016
    endloop
endfacet
facet normal -6.087615e-001 -7.933533e-001 0.000000e+000
    outer loop
        vertex 1.176777e+001 1.767767e+000 5.000000e+000
        vertex 1.125000e+001 2.165064e+000 5.000000e+000
        vertex 1.125000e+001 2.165064e+000 -8.673617e-016
    endloop
endfacet
facet normal -7.933538e-001 -6.087608e-001 0.000000e+000
    outer loop
        vertex 1.216506e+001 1.250000e+000 -8.673617e-016
        vertex 1.216506e+001 1.250000e+000 5.000000e+000
        vertex 1.176777e+001 1.767767e+000 -8.673617e-016
    endloop
endfacet
facet normal -7.933538e-001 -6.087608e-001 0.000000e+000
    outer loop
        vertex 1.216506e+001 1.250000e+000 5.000000e+000
        vertex 1.176777e+001 1.767767e+000 5.000000e+000
        vertex 1.176777e+001 1.767767e+000 -8.673617e-016
    endloop
endfacet
facet normal -9.238790e-001 -3.826847e-001 0.000000e+000
    outer loop
        vertex 1.241481e+001 6.470476e-001 -8.673617e-016
        vertex 1.241481e+001 6.470476e-001 5.000000e+000
        vertex 1.216506e+001 1.250000e+000 -8.673617e-016
    endloop
endfacet
facet normal -9.238790e-001 -3.826847e-001 0.000000e+000
    outer loop
        vertex 1.241481e+001 6.470476e-001 5.000000e+000
        vertex 1.216506e+001 1.250000e+000 5.000000e+000
        vertex 1.216506e+001 1.250000e+000 -8.673617e-016
    endloop
endfacet
facet normal -9.914449e-001 -1.305256e-001 0.000000e+000
    outer loop
        vertex 1.250000e+001 -2.168404e-016 -8.673617e-016
        vertex 1.250000e+001 -2.168404e-016 5.000000e+000
        vertex 1.241481e+001 6.470476e-001 -8.673617e-016
    endloop
endfacet
facet normal -9.914449e-001 -1.305256e-001 0.000000e+000
    outer loop
        vertex 1.250000e+001 -2.168404e-016 5.000000e+000
        vertex 1.241481e+001 6.470476e-001 5.000000e+000
        vertex 1.241481e+001 6.470476e-001 -8.673617e-016
    endloop
endfacet
facet normal -9.914449e-001 1.305256e-001 0.000000e+000
    outer loop
        vertex 1.241481e+001 -6.470476e-001 -8.673617e-016
        vertex 1.241481e+001 -6.470476e-001 5.000000e+000
        vertex 1.250000e+001 -2.168404e-016 -8.673617e-016
    endloop
endfacet
facet normal -9.914449e-001 1.305256e-001 0.000000e+000
    outer loop
        vertex 1.241481e+001 -6.470476e-001 5.000000e+000
        vertex 1.250000e+001 -2.168404e-016 5.000000e+000
        vertex 1.250000e+001 -2.168404e-016 -8.673617e-016
    endloop
endfacet
facet normal -9.238790e-001 3.826847e-001 0.000000e+000
    outer loop
        vertex 1.216506e+001 -1.250000e+000 -8.673617e-016
        vertex 1.216506e+001 -1.250000e+000 5.000000e+000
        vertex 1.241481e+001 -6.470476e-001 -8.673617e-016
    endloop
endfacet
facet normal -9.238790e-001 3.826847e-001 0.000000e+000
    outer loop
        vertex 1.216506e+001 -1.250000e+000 5.000000e+000
        vertex 1.241481e+001 -6.470476e-001 5.000000e+000
        vertex 1.241481e+001 -6.470476e-001 -8.673617e-016
    endloop
endfacet
facet normal -7.933538e-001 6.087608e-001 0.000000e+000
    outer loop
        vertex 1.176777e+001 -1.767767e+000 -8.673617e-016
        vertex 1.176777e+001 -1.767767e+000 5.000000e+000
        vertex 1.216506e+001 -1.250000e+000 -8.673617e-016
    endloop
endfacet
facet normal -7.933538e-001 6.087608e-001 0.000000e+000
    outer loop
        vertex 1.176777e+001 -1.767767e+000 5.000000e+000
        vertex 1.216506e+001 -1.250000e+000 5.000000e+000
        vertex 1.216506e+001 -1.250000e+000 -8.673617e-016
    endloop
endfacet
facet normal 0.000000e+000 0.000000e+000 -1.000000e+000
    outer loop
        vertex 2.000000e+001 -1.000000e+001 -8.673617e-016
        vertex 1.125000e+001 -2.165064e+000 -8.673617e-016
        vertex 1.176777e+001 -1.767767e+000 -8.673617e-016
    endloop
endfacet
facet normal 0.000000e+000 0.000000e+000 -1.000000e+000
    outer loop
        vertex -1.176777e+001 1.767767e+000 -8.673617e-016
        vertex -2.000000e+001 1.000000e+001 -8.673617e-016
        vertex -1.125000e+001 2.165064e+000 -8.673617e-016
    endloop
endfacet
facet normal 0.000000e+000 0.000000e+000 -1.000000e+000
    outer loop
        vertex 2.000000e+001 -1.000000e+001 -8.673617e-016
        vertex 1.176777e+001 -1.767767e+000 -8.673617e-016
        vertex 1.216506e+001 -1.250000e+000 -8.673617e-016
    endloop
endfacet
facet normal 0.000000e+000 0.000000e+000 -1.000000e+000
    outer loop
        vertex 2.000000e+001 -1.000000e+001 -8.673617e-016
        vertex 1.216506e+001 -1.250000e+000 -8.673617e-016
        vertex 2.000000e+001 1.000000e+001 -8.673617e-016
    endloop
endfacet
facet normal 0.000000e+000 0.000000e+000 -1.000000e+000
    outer loop
        vertex -1.216506e+001 1.250000e+000 -8.673617e-016
        vertex -2.000000e+001 1.000000e+001 -8.673617e-016
        vertex -1.176777e+001 1.767767e+000 -8.673617e-016
    endloop
endfacet
facet normal 0.000000e+000 0.000000e+000 -1.000000e+000
    outer loop
        vertex -2.000000e+001 -1.000000e+001 -8.673617e-016
        vertex -2.000000e+001 1.000000e+001 -8.673617e-016
        vertex -1.216506e+001 1.250000e+000 -8.673617e-016
    endloop
endfacet
facet normal 0.000000e+000 0.000000e+000 -1.000000e+000
    outer loop
        vertex 2.000000e+001 -1.000000e+001 -8.673617e-016
        vertex 1.064705e+001 -2.414814e+000 -8.673617e-016
        vertex 1.125000e+001 -2.165064e+000 -8.673617e-016
    endloop
endfacet
facet normal 0.000000e+000 0.000000e+000 -1.000000e+000
    outer loop
        vertex 2.000000e+001 -1.000000e+001 -8.673617e-016
        vertex -2.000000e+001 -1.000000e+001 -8.673617e-016
        vertex 1.064705e+001 -2.414814e+000 -8.673617e-016
    endloop
endfacet
facet normal 0.000000e+000 0.000000e+000 -1.000000e+000
    outer loop
        vertex -1.125000e+001 2.165064e+000 -8.673617e-016
        vertex -2.000000e+001 1.000000e+001 -8.673617e-016
        vertex -1.064705e+001 2.414814e+000 -8.673617e-016
    endloop
endfacet
facet normal 0.000000e+000 0.000000e+000 -1.000000e+000
    outer loop
        vertex -1.064705e+001 2.414814e+000 -8.673617e-016
        vertex -2.000000e+001 1.000000e+001 -8.673617e-016
        vertex 2.000000e+001 1.000000e+001 -8.673617e-016
    endloop
endfacet
facet normal 0.000000e+000 0.000000e+000 -1.000000e+000
    outer loop
        vertex 1.216506e+001 -1.250000e+000 -8.673617e-016
        vertex 1.241481e+001 -6.470476e-001 -8.673617e-016
        vertex 2.000000e+001 1.000000e+001 -8.673617e-016
    endloop
endfacet
facet normal 0.000000e+000 0.000000e+000 -1.000000e+000
    outer loop
        vertex 1.241481e+001 -6.470476e-001 -8.673617e-016
        vertex 1.250000e+001 -2.168404e-016 -8.673617e-016
        vertex 2.000000e+001 1.000000e+001 -8.673617e-016
    endloop
endfacet
facet normal 0.000000e+000 0.000000e+000 -1.000000e+000
    outer loop
        vertex 1.250000e+001 -2.168404e-016 -8.673617e-016
        vertex 1.241481e+001 6.470476e-001 -8.673617e-016
        vertex 2.000000e+001 1.000000e+001 -8.673617e-016
    endloop
endfacet
facet normal 0.000000e+000 0.000000e+000 -1.000000e+000
    outer loop
        vertex 1.241481e+001 6.470476e-001 -8.673617e-016
        vertex 1.216506e+001 1.250000e+000 -8.673617e-016
        vertex 2.000000e+001 1.000000e+001 -8.673617e-016
    endloop
endfacet
facet normal 0.000000e+000 0.000000e+000 -1.000000e+000
    outer loop
        vertex 1.216506e+001 1.250000e+000 -8.673617e-016
        vertex 1.176777e+001 1.767767e+000 -8.673617e-016
        vertex 2.000000e+001 1.000000e+001 -8.673617e-016
    endloop
endfacet
facet normal 0.000000e+000 0.000000e+000 -1.000000e+000
    outer loop
        vertex 1.176777e+001 1.767767e+000 -8.673617e-016
        vertex 1.125000e+001 2.165064e+000 -8.673617e-016
        vertex 2.000000e+001 1.000000e+001 -8.673617e-016
    endloop
endfacet
facet normal 0.000000e+000 0.000000e+000 -1.000000e+000
    outer loop
        vertex 1.125000e+001 2.165064e+000 -8.673617e-016
        vertex 1.064705e+001 2.414814e+000 -8.673617e-016
        vertex 2.000000e+001 1.000000e+001 -8.673617e-016
    endloop
endfacet
facet normal 0.000000e+000 0.000000e+000 -1.000000e+000
    outer loop
        vertex 1.064705e+001 2.414814e+000 -8.673617e-016
        vertex 1.000000e+001 2.500000e+000 -8.673617e-016
        vertex 2.000000e+001 1.000000e+001 -8.673617e-016
    endloop
endfacet
facet normal 0.000000e+000 0.000000e+000 -1.000000e+000
    outer loop
        vertex 9.352952e+000 2.414814e+000 -8.673617e-016
        vertex 2.000000e+001 1.000000e+001 -8.673617e-016
        vertex 1.000000e+001 2.500000e+000 -8.673617e-016
    endloop
endfacet
facet normal 0.000000e+000 0.000000e+000 -1.000000e+000
    outer loop
        vertex 8.750000e+000 2.165064e+000 -8.673617e-016
        vertex 2.000000e+001 1.000000e+001 -8.673617e-016
        vertex 9.352952e+000 2.414814e+000 -8.673617e-016
    endloop
endfacet
facet normal 0.000000e+000 0.000000e+000 -1.000000e+000
    outer loop
        vertex -2.000000e+001 -1.000000e+001 -8.673617e-016
        vertex -1.216506e+001 1.250000e+000 -8.673617e-016
        vertex -1.241481e+001 6.470476e-001 -8.673617e-016
    endloop
endfacet
facet normal 0.000000e+000 0.000000e+000 -1.000000e+000
    outer loop
        vertex -2.000000e+001 -1.000000e+001 -8.673617e-016
        vertex -1.241481e+001 6.470476e-001 -8.673617e-016
        vertex -1.250000e+001 0.000000e+000 -8.673617e-016
    endloop
endfacet
facet normal 0.000000e+000 0.000000e+000 -1.000000e+000
    outer loop
        vertex -2.000000e+001 -1.000000e+001 -8.673617e-016
        vertex -1.250000e+001 0.000000e+000 -8.673617e-016
        vertex -1.241481e+001 -6.470476e-001 -8.673617e-016
    endloop
endfacet
facet normal 0.000000e+000 0.000000e+000 -1.000000e+000
    outer loop
        vertex -2.000000e+001 -1.000000e+001 -8.673617e-016
        vertex -1.241481e+001 -6.470476e-001 -8.673617e-016
        vertex -1.216506e+001 -1.250000e+000 -8.673617e-016
    endloop
endfacet
facet normal 0.000000e+000 0.000000e+000 -1.000000e+000
    outer loop
        vertex -2.000000e+001 -1.000000e+001 -8.673617e-016
        vertex -1.216506e+001 -1.250000e+000 -8.673617e-016
        vertex -1.176777e+001 -1.767767e+000 -8.673617e-016
    endloop
endfacet
facet normal 0.000000e+000 0.000000e+000 -1.000000e+000
    outer loop
        vertex -2.000000e+001 -1.000000e+001 -8.673617e-016
        vertex -1.176777e+001 -1.767767e+000 -8.673617e-016
        vertex -1.125000e+001 -2.165064e+000 -8.673617e-016
    endloop
endfacet
facet normal 0.000000e+000 0.000000e+000 -1.000000e+000
    outer loop
        vertex -2.000000e+001 -1.000000e+001 -8.673617e-016
        vertex -1.125000e+001 -2.165064e+000 -8.673617e-016
        vertex -1.064705e+001 -2.414814e+000 -8.673617e-016
    endloop
endfacet
facet normal 0.000000e+000 0.000000e+000 -1.000000e+000
    outer loop
        vertex -2.000000e+001 -1.000000e+001 -8.673617e-016
        vertex -1.064705e+001 -2.414814e+000 -8.673617e-016
        vertex -1.000000e+001 -2.500000e+000 -8.673617e-016
    endloop
endfacet
facet normal 0.000000e+000 0.000000e+000 -1.000000e+000
    outer loop
        vertex -2.000000e+001 -1.000000e+001 -8.673617e-016
        vertex -1.000000e+001 -2.500000e+000 -8.673617e-016
        vertex -9.352952e+000 -2.414814e+000 -8.673617e-016
    endloop
endfacet
facet normal 0.000000e+000 0.000000e+000 -1.000000e+000
    outer loop
        vertex -2.000000e+001 -1.000000e+001 -8.673617e-016
        vertex -9.352952e+000 -2.414814e+000 -8.673617e-016
        vertex -8.750000e+000 -2.165064e+000 -8.673617e-016
    endloop
endfacet
facet normal 0.000000e+000 0.000000e+000 -1.000000e+000
    outer loop
        vertex -2.000000e+001 -1.000000e+001 -8.673617e-016
        vertex 1.000000e+001 -2.500000e+000 -8.673617e-016
        vertex 1.064705e+001 -2.414814e+000 -8.673617e-016
    endloop
endfacet
facet normal 0.000000e+000 0.000000e+000 -1.000000e+000
    outer loop
        vertex -2.000000e+001 -1.000000e+001 -8.673617e-016
        vertex -8.750000e+000 -2.165064e+000 -8.673617e-016
        vertex 1.000000e+001 -2.500000e+000 -8.673617e-016
    endloop
endfacet
facet normal 0.000000e+000 0.000000e+000 -1.000000e+000
    outer loop
        vertex 1.000000e+001 -2.500000e+000 -8.673617e-016
        vertex -8.750000e+000 -2.165064e+000 -8.673617e-016
        vertex -8.232233e+000 -1.767767e+000 -8.673617e-016
    endloop
endfacet
facet normal 0.000000e+000 0.000000e+000 -1.000000e+000
    outer loop
        vertex 1.000000e+001 -2.500000e+000 -8.673617e-016
        vertex -8.232233e+000 -1.767767e+000 -8.673617e-016
        vertex -7.834937e+000 -1.250000e+000 -8.673617e-016
    endloop
endfacet
facet normal 0.000000e+000 0.000000e+000 -1.000000e+000
    outer loop
        vertex 1.000000e+001 -2.500000e+000 -8.673617e-016
        vertex -7.834937e+000 -1.250000e+000 -8.673617e-016
        vertex -7.585186e+000 -6.470476e-001 -8.673617e-016
    endloop
endfacet
facet normal 0.000000e+000 0.000000e+000 -1.000000e+000
    outer loop
        vertex -1.064705e+001 2.414814e+000 -8.673617e-016
        vertex 2.000000e+001 1.000000e+001 -8.673617e-016
        vertex -1.000000e+001 2.500000e+000 -8.673617e-016
    endloop
endfacet
facet normal 0.000000e+000 0.000000e+000 -1.000000e+000
    outer loop
        vertex 8.750000e+000 2.165064e+000 -8.673617e-016
        vertex -1.000000e+001 2.500000e+000 -8.673617e-016
        vertex 2.000000e+001 1.000000e+001 -8.673617e-016
    endloop
endfacet
facet normal 0.000000e+000 0.000000e+000 -1.000000e+000
    outer loop
        vertex 8.232233e+000 1.767767e+000 -8.673617e-016
        vertex -1.000000e+001 2.500000e+000 -8.673617e-016
        vertex 8.750000e+000 2.165064e+000 -8.673617e-016
    endloop
endfacet
facet normal 0.000000e+000 0.000000e+000 -1.000000e+000
    outer loop
        vertex 7.834937e+000 1.250000e+000 -8.673617e-016
        vertex -1.000000e+001 2.500000e+000 -8.673617e-016
        vertex 8.232233e+000 1.767767e+000 -8.673617e-016
    endloop
endfacet
facet normal 0.000000e+000 0.000000e+000 -1.000000e+000
    outer loop
        vertex 7.585186e+000 6.470476e-001 -8.673617e-016
        vertex -1.000000e+001 2.500000e+000 -8.673617e-016
        vertex 7.834937e+000 1.250000e+000 -8.673617e-016
    endloop
endfacet
facet normal 0.000000e+000 0.000000e+000 -1.000000e+000
    outer loop
        vertex 1.000000e+001 -2.500000e+000 -8.673617e-016
        vertex -7.585186e+000 -6.470476e-001 -8.673617e-016
        vertex 9.352952e+000 -2.414814e+000 -8.673617e-016
    endloop
endfacet
facet normal 0.000000e+000 0.000000e+000 -1.000000e+000
    outer loop
        vertex 9.352952e+000 -2.414814e+000 -8.673617e-016
        vertex -7.585186e+000 -6.470476e-001 -8.673617e-016
        vertex -7.500000e+000 0.000000e+000 -8.673617e-016
    endloop
endfacet
facet normal 0.000000e+000 0.000000e+000 -1.000000e+000
    outer loop
        vertex 9.352952e+000 -2.414814e+000 -8.673617e-016
        vertex -7.500000e+000 0.000000e+000 -8.673617e-016
        vertex -7.585186e+000 6.470476e-001 -8.673617e-016
    endloop
endfacet
facet normal 0.000000e+000 0.000000e+000 -1.000000e+000
    outer loop
        vertex 9.352952e+000 -2.414814e+000 -8.673617e-016
        vertex -7.585186e+000 6.470476e-001 -8.673617e-016
        vertex -7.834937e+000 1.250000e+000 -8.673617e-016
    endloop
endfacet
facet normal 0.000000e+000 0.000000e+000 -1.000000e+000
    outer loop
        vertex 9.352952e+000 -2.414814e+000 -8.673617e-016
        vertex -7.834937e+000 1.250000e+000 -8.673617e-016
        vertex -8.232233e+000 1.767767e+000 -8.673617e-016
    endloop
endfacet
facet normal 0.000000e+000 0.000000e+000 -1.000000e+000
    outer loop
        vertex 9.352952e+000 -2.414814e+000 -8.673617e-016
        vertex -8.232233e+000 1.767767e+000 -8.673617e-016
        vertex -8.750000e+000 2.165064e+000 -8.673617e-016
    endloop
endfacet
facet normal 0.000000e+000 0.000000e+000 -1.000000e+000
    outer loop
        vertex 9.352952e+000 -2.414814e+000 -8.673617e-016
        vertex -8.750000e+000 2.165064e+000 -8.673617e-016
        vertex 8.750000e+000 -2.165064e+000 -8.673617e-016
    endloop
endfacet
facet normal 0.000000e+000 0.000000e+000 -1.000000e+000
    outer loop
        vertex 8.750000e+000 -2.165064e+000 -8.673617e-016
        vertex -8.750000e+000 2.165064e+000 -8.673617e-016
        vertex 8.232233e+000 -1.767767e+000 -8.673617e-016
    endloop
endfacet
facet normal 0.000000e+000 0.000000e+000 -1.000000e+000
    outer loop
        vertex 8.232233e+000 -1.767767e+000 -8.673617e-016
        vertex -8.750000e+000 2.165064e+000 -8.673617e-016
        vertex 7.834937e+000 -1.250000e+000 -8.673617e-016
    endloop
endfacet
facet normal 0.000000e+000 0.000000e+000 -1.000000e+000
    outer loop
        vertex 7.834937e+000 -1.250000e+000 -8.673617e-016
        vertex -8.750000e+000 2.165064e+000 -8.673617e-016
        vertex 7.585186e+000 -6.470476e-001 -8.673617e-016
    endloop
endfacet
facet normal 0.000000e+000 0.000000e+000 -1.000000e+000
    outer loop
        vertex 7.585186e+000 -6.470476e-001 -8.673617e-016
        vertex -8.750000e+000 2.165064e+000 -8.673617e-016
        vertex 7.500000e+000 0.000000e+000 -8.673617e-016
    endloop
endfacet
facet normal 0.000000e+000 0.000000e+000 -1.000000e+000
    outer loop
        vertex 7.500000e+000 0.000000e+000 -8.673617e-016
        vertex -8.750000e+000 2.165064e+000 -8.673617e-016
        vertex 7.585186e+000 6.470476e-001 -8.673617e-016
    endloop
endfacet
facet normal 0.000000e+000 0.000000e+000 -1.000000e+000
    outer loop
        vertex 7.585186e+000 6.470476e-001 -8.673617e-016
        vertex -8.750000e+000 2.165064e+000 -8.673617e-016
        vertex -9.352952e+000 2.414814e+000 -8.673617e-016
    endloop
endfacet
facet normal 0.000000e+000 0.000000e+000 -1.000000e+000
    outer loop
        vertex 7.585186e+000 6.470476e-001 -8.673617e-016
        vertex -9.352952e+000 2.414814e+000 -8.673617e-016
        vertex -1.000000e+001 2.500000e+000 -8.673617e-016
    endloop
endfacet
facet normal 0.000000e+000 -0.000000e+000 1.000000e+000
    outer loop
        vertex -1.176777e+001 1.767767e+000 5.000000e+000
        vertex -1.125000e+001 2.165064e+000 5.000000e+000
        vertex -2.000000e+001 1.000000e+001 5.000000e+000
    endloop
endfacet
facet normal 0.000000e+000 0.000000e+000 1.000000e+000
    outer loop
        vertex 2.000000e+001 -1.000000e+001 5.000000e+000
        vertex 1.176777e+001 -1.767767e+000 5.000000e+000
        vertex 1.125000e+001 -2.165064e+000 5.000000e+000
    endloop
endfacet
facet normal 0.000000e+000 -0.000000e+000 1.000000e+000
    outer loop
        vertex -1.216506e+001 1.250000e+000 5.000000e+000
        vertex -1.176777e+001 1.767767e+000 5.000000e+000
        vertex -2.000000e+001 1.000000e+001 5.000000e+000
    endloop
endfacet
facet normal 0.000000e+000 0.000000e+000 1.000000e+000
    outer loop
        vertex -2.000000e+001 -1.000000e+001 5.000000e+000
        vertex -1.216506e+001 1.250000e+000 5.000000e+000
        vertex -2.000000e+001 1.000000e+001 5.000000e+000
    endloop
endfacet
facet normal 0.000000e+000 0.000000e+000 1.000000e+000
    outer loop
        vertex 2.000000e+001 -1.000000e+001 5.000000e+000
        vertex 1.216506e+001 -1.250000e+000 5.000000e+000
        vertex 1.176777e+001 -1.767767e+000 5.000000e+000
    endloop
endfacet
facet normal 0.000000e+000 -0.000000e+000 1.000000e+000
    outer loop
        vertex 2.000000e+001 -1.000000e+001 5.000000e+000
        vertex 2.000000e+001 1.000000e+001 5.000000e+000
        vertex 1.216506e+001 -1.250000e+000 5.000000e+000
    endloop
endfacet
facet normal 0.000000e+000 -0.000000e+000 1.000000e+000
    outer loop
        vertex -1.125000e+001 2.165064e+000 5.000000e+000
        vertex -1.064705e+001 2.414814e+000 5.000000e+000
        vertex -2.000000e+001 1.000000e+001 5.000000e+000
    endloop
endfacet
facet normal 0.000000e+000 -0.000000e+000 1.000000e+000
    outer loop
        vertex -1.064705e+001 2.414814e+000 5.000000e+000
        vertex 2.000000e+001 1.000000e+001 5.000000e+000
        vertex -2.000000e+001 1.000000e+001 5.000000e+000
    endloop
endfacet
facet normal 0.000000e+000 0.000000e+000 1.000000e+000
    outer loop
        vertex 2.000000e+001 -1.000000e+001 5.000000e+000
        vertex 1.125000e+001 -2.165064e+000 5.000000e+000
        vertex 1.064705e+001 -2.414814e+000 5.000000e+000
    endloop
endfacet
facet normal 0.000000e+000 0.000000e+000 1.000000e+000
    outer loop
        vertex -2.000000e+001 -1.000000e+001 5.000000e+000
        vertex 2.000000e+001 -1.000000e+001 5.000000e+000
        vertex 1.064705e+001 -2.414814e+000 5.000000e+000
    endloop
endfacet
facet normal 0.000000e+000 0.000000e+000 1.000000e+000
    outer loop
        vertex -2.000000e+001 -1.000000e+001 5.000000e+000
        vertex -1.241481e+001 6.470476e-001 5.000000e+000
        vertex -1.216506e+001 1.250000e+000 5.000000e+000
    endloop
endfacet
facet normal 0.000000e+000 0.000000e+000 1.000000e+000
    outer loop
        vertex -2.000000e+001 -1.000000e+001 5.000000e+000
        vertex -1.250000e+001 0.000000e+000 5.000000e+000
        vertex -1.241481e+001 6.470476e-001 5.000000e+000
    endloop
endfacet
facet normal 0.000000e+000 0.000000e+000 1.000000e+000
    outer loop
        vertex -2.000000e+001 -1.000000e+001 5.000000e+000
        vertex -1.241481e+001 -6.470476e-001 5.000000e+000
        vertex -1.250000e+001 0.000000e+000 5.000000e+000
    endloop
endfacet
facet normal 0.000000e+000 0.000000e+000 1.000000e+000
    outer loop
        vertex -2.000000e+001 -1.000000e+001 5.000000e+000
        vertex -1.216506e+001 -1.250000e+000 5.000000e+000
        vertex -1.241481e+001 -6.470476e-001 5.000000e+000
    endloop
endfacet
facet normal 0.000000e+000 0.000000e+000 1.000000e+000
    outer loop
        vertex -2.000000e+001 -1.000000e+001 5.000000e+000
        vertex -1.176777e+001 -1.767767e+000 5.000000e+000
        vertex -1.216506e+001 -1.250000e+000 5.000000e+000
    endloop
endfacet
facet normal 0.000000e+000 0.000000e+000 1.000000e+000
    outer loop
        vertex -2.000000e+001 -1.000000e+001 5.000000e+000
        vertex -1.125000e+001 -2.165064e+000 5.000000e+000
        vertex -1.176777e+001 -1.767767e+000 5.000000e+000
    endloop
endfacet
facet normal 0.000000e+000 0.000000e+000 1.000000e+000
    outer loop
        vertex -2.000000e+001 -1.000000e+001 5.000000e+000
        vertex -1.064705e+001 -2.414814e+000 5.000000e+000
        vertex -1.125000e+001 -2.165064e+000 5.000000e+000
    endloop
endfacet
facet normal 0.000000e+000 0.000000e+000 1.000000e+000
    outer loop
        vertex -2.000000e+001 -1.000000e+001 5.000000e+000
        vertex -1.000000e+001 -2.500000e+000 5.000000e+000
        vertex -1.064705e+001 -2.414814e+000 5.000000e+000
    endloop
endfacet
facet normal 0.000000e+000 0.000000e+000 1.000000e+000
    outer loop
        vertex -2.000000e+001 -1.000000e+001 5.000000e+000
        vertex -9.352952e+000 -2.414814e+000 5.000000e+000
        vertex -1.000000e+001 -2.500000e+000 5.000000e+000
    endloop
endfacet
facet normal 0.000000e+000 0.000000e+000 1.000000e+000
    outer loop
        vertex -2.000000e+001 -1.000000e+001 5.000000e+000
        vertex -8.750000e+000 -2.165064e+000 5.000000e+000
        vertex -9.352952e+000 -2.414814e+000 5.000000e+000
    endloop
endfacet
facet normal 0.000000e+000 0.000000e+000 1.000000e+000
    outer loop
        vertex 1.216506e+001 -1.250000e+000 5.000000e+000
        vertex 2.000000e+001 1.000000e+001 5.000000e+000
        vertex 1.241481e+001 -6.470476e-001 5.000000e+000
    endloop
endfacet
facet normal 0.000000e+000 0.000000e+000 1.000000e+000
    outer loop
        vertex 1.241481e+001 -6.470476e-001 5.000000e+000
        vertex 2.000000e+001 1.000000e+001 5.000000e+000
        vertex 1.250000e+001 -2.168404e-016 5.000000e+000
    endloop
endfacet
facet normal 0.000000e+000 -0.000000e+000 1.000000e+000
    outer loop
        vertex 1.250000e+001 -2.168404e-016 5.000000e+000
        vertex 2.000000e+001 1.000000e+001 5.000000e+000
        vertex 1.241481e+001 6.470476e-001 5.000000e+000
    endloop
endfacet
facet normal 0.000000e+000 -0.000000e+000 1.000000e+000
    outer loop
        vertex 1.241481e+001 6.470476e-001 5.000000e+000
        vertex 2.000000e+001 1.000000e+001 5.000000e+000
        vertex 1.216506e+001 1.250000e+000 5.000000e+000
    endloop
endfacet
facet normal 0.000000e+000 -0.000000e+000 1.000000e+000
    outer loop
        vertex 1.216506e+001 1.250000e+000 5.000000e+000
        vertex 2.000000e+001 1.000000e+001 5.000000e+000
        vertex 1.176777e+001 1.767767e+000 5.000000e+000
    endloop
endfacet
facet normal 0.000000e+000 -0.000000e+000 1.000000e+000
    outer loop
        vertex 1.176777e+001 1.767767e+000 5.000000e+000
        vertex 2.000000e+001 1.000000e+001 5.000000e+000
        vertex 1.125000e+001 2.165064e+000 5.000000e+000
    endloop
endfacet
facet normal 0.000000e+000 -0.000000e+000 1.000000e+000
    outer loop
        vertex 1.125000e+001 2.165064e+000 5.000000e+000
        vertex 2.000000e+001 1.000000e+001 5.000000e+000
        vertex 1.064705e+001 2.414814e+000 5.000000e+000
    endloop
endfacet
facet normal 0.000000e+000 -0.000000e+000 1.000000e+000
    outer loop
        vertex 1.064705e+001 2.414814e+000 5.000000e+000
        vertex 2.000000e+001 1.000000e+001 5.000000e+000
        vertex 1.000000e+001 2.500000e+000 5.000000e+000
    endloop
endfacet
facet normal 0.000000e+000 0.000000e+000 1.000000e+000
    outer loop
        vertex 9.352952e+000 2.414814e+000 5.000000e+000
        vertex 1.000000e+001 2.500000e+000 5.000000e+000
        vertex 2.000000e+001 1.000000e+001 5.000000e+000
    endloop
endfacet
facet normal 0.000000e+000 0.000000e+000 1.000000e+000
    outer loop
        vertex 8.750000e+000 2.165064e+000 5.000000e+000
        vertex 9.352952e+000 2.414814e+000 5.000000e+000
        vertex 2.000000e+001 1.000000e+001 5.000000e+000
    endloop
endfacet
facet normal 0.000000e+000 0.000000e+000 1.000000e+000
    outer loop
        vertex -1.064705e+001 2.414814e+000 5.000000e+000
        vertex -1.000000e+001 2.500000e+000 5.000000e+000
        vertex 2.000000e+001 1.000000e+001 5.000000e+000
    endloop
endfacet
facet normal 0.000000e+000 -0.000000e+000 1.000000e+000
    outer loop
        vertex 8.750000e+000 2.165064e+000 5.000000e+000
        vertex 2.000000e+001 1.000000e+001 5.000000e+000
        vertex -1.000000e+001 2.500000e+000 5.000000e+000
    endloop
endfacet
facet normal 0.000000e+000 -0.000000e+000 1.000000e+000
    outer loop
        vertex 8.232233e+000 1.767767e+000 5.000000e+000
        vertex 8.750000e+000 2.165064e+000 5.000000e+000
        vertex -1.000000e+001 2.500000e+000 5.000000e+000
    endloop
endfacet
facet normal 0.000000e+000 -0.000000e+000 1.000000e+000
    outer loop
        vertex 7.834937e+000 1.250000e+000 5.000000e+000
        vertex 8.232233e+000 1.767767e+000 5.000000e+000
        vertex -1.000000e+001 2.500000e+000 5.000000e+000
    endloop
endfacet
facet normal 0.000000e+000 -0.000000e+000 1.000000e+000
    outer loop
        vertex 7.585186e+000 6.470476e-001 5.000000e+000
        vertex 7.834937e+000 1.250000e+000 5.000000e+000
        vertex -1.000000e+001 2.500000e+000 5.000000e+000
    endloop
endfacet
facet normal 0.000000e+000 0.000000e+000 1.000000e+000
    outer loop
        vertex -2.000000e+001 -1.000000e+001 5.000000e+000
        vertex 1.064705e+001 -2.414814e+000 5.000000e+000
        vertex 1.000000e+001 -2.500000e+000 5.000000e+000
    endloop
endfacet
facet normal 0.000000e+000 0.000000e+000 1.000000e+000
    outer loop
        vertex -2.000000e+001 -1.000000e+001 5.000000e+000
        vertex 1.000000e+001 -2.500000e+000 5.000000e+000
        vertex -8.750000e+000 -2.165064e+000 5.000000e+000
    endloop
endfacet
facet normal 0.000000e+000 0.000000e+000 1.000000e+000
    outer loop
        vertex 1.000000e+001 -2.500000e+000 5.000000e+000
        vertex -8.232233e+000 -1.767767e+000 5.000000e+000
        vertex -8.750000e+000 -2.165064e+000 5.000000e+000
    endloop
endfacet
facet normal 0.000000e+000 0.000000e+000 1.000000e+000
    outer loop
        vertex 1.000000e+001 -2.500000e+000 5.000000e+000
        vertex -7.834937e+000 -1.250000e+000 5.000000e+000
        vertex -8.232233e+000 -1.767767e+000 5.000000e+000
    endloop
endfacet
facet normal 0.000000e+000 0.000000e+000 1.000000e+000
    outer loop
        vertex 1.000000e+001 -2.500000e+000 5.000000e+000
        vertex -7.585186e+000 -6.470476e-001 5.000000e+000
        vertex -7.834937e+000 -1.250000e+000 5.000000e+000
    endloop
endfacet
facet normal 0.000000e+000 0.000000e+000 1.000000e+000
    outer loop
        vertex 7.585186e+000 6.470476e-001 5.000000e+000
        vertex -1.000000e+001 2.500000e+000 5.000000e+000
        vertex -9.352952e+000 2.414814e+000 5.000000e+000
    endloop
endfacet
facet normal 0.000000e+000 -0.000000e+000 1.000000e+000
    outer loop
        vertex 7.500000e+000 0.000000e+000 5.000000e+000
        vertex 7.585186e+000 6.470476e-001 5.000000e+000
        vertex -9.352952e+000 2.414814e+000 5.000000e+000
    endloop
endfacet
facet normal 0.000000e+000 0.000000e+000 1.000000e+000
    outer loop
        vertex 7.585186e+000 -6.470476e-001 5.000000e+000
        vertex 7.500000e+000 0.000000e+000 5.000000e+000
        vertex -9.352952e+000 2.414814e+000 5.000000e+000
    endloop
endfacet
facet normal 0.000000e+000 0.000000e+000 1.000000e+000
    outer loop
        vertex 7.834937e+000 -1.250000e+000 5.000000e+000
        vertex 7.585186e+000 -6.470476e-001 5.000000e+000
        vertex -9.352952e+000 2.414814e+000 5.000000e+000
    endloop
endfacet
facet normal 0.000000e+000 0.000000e+000 1.000000e+000
    outer loop
        vertex 8.232233e+000 -1.767767e+000 5.000000e+000
        vertex 7.834937e+000 -1.250000e+000 5.000000e+000
        vertex -9.352952e+000 2.414814e+000 5.000000e+000
    endloop
endfacet
facet normal 0.000000e+000 0.000000e+000 1.000000e+000
    outer loop
        vertex 8.750000e+000 -2.165064e+000 5.000000e+000
        vertex 8.232233e+000 -1.767767e+000 5.000000e+000
        vertex -9.352952e+000 2.414814e+000 5.000000e+000
    endloop
endfacet
facet normal 0.000000e+000 0.000000e+000 1.000000e+000
    outer loop
        vertex 8.750000e+000 -2.165064e+000 5.000000e+000
        vertex -9.352952e+000 2.414814e+000 5.000000e+000
        vertex -8.750000e+000 2.165064e+000 5.000000e+000
    endloop
endfacet
facet normal 0.000000e+000 0.000000e+000 1.000000e+000
    outer loop
        vertex 8.750000e+000 -2.165064e+000 5.000000e+000
        vertex -8.750000e+000 2.165064e+000 5.000000e+000
        vertex -8.232233e+000 1.767767e+000 5.000000e+000
    endloop
endfacet
facet normal 0.000000e+000 0.000000e+000 1.000000e+000
    outer loop
        vertex 8.750000e+000 -2.165064e+000 5.000000e+000
        vertex -8.232233e+000 1.767767e+000 5.000000e+000
        vertex -7.834937e+000 1.250000e+000 5.000000e+000
    endloop
endfacet
facet normal 0.000000e+000 0.000000e+000 1.000000e+000
    outer loop
        vertex 8.750000e+000 -2.165064e+000 5.000000e+000
        vertex -7.834937e+000 1.250000e+000 5.000000e+000
        vertex -7.585186e+000 6.470476e-001 5.000000e+000
    endloop
endfacet
facet normal 0.000000e+000 0.000000e+000 1.000000e+000
    outer loop
        vertex 8.750000e+000 -2.165064e+000 5.000000e+000
        vertex -7.585186e+000 6.470476e-001 5.000000e+000
        vertex -7.500000e+000 0.000000e+000 5.000000e+000
    endloop
endfacet
facet normal 0.000000e+000 0.000000e+000 1.000000e+000
    outer loop
        vertex 8.750000e+000 -2.165064e+000 5.000000e+000
        vertex -7.500000e+000 0.000000e+000 5.000000e+000
        vertex -7.585186e+000 -6.470476e-001 5.000000e+000
    endloop
endfacet
facet normal 0.000000e+000 0.000000e+000 1.000000e+000
    outer loop
        vertex 1.000000e+001 -2.500000e+000 5.000000e+000
        vertex 9.352952e+000 -2.414814e+000 5.000000e+000
        vertex -7.585186e+000 -6.470476e-001 5.000000e+000
    endloop
endfacet
facet normal 0.000000e+000 0.000000e+000 1.000000e+000
    outer loop
        vertex 9.352952e+000 -2.414814e+000 5.000000e+000
        vertex 8.750000e+000 -2.165064e+000 5.000000e+000
        vertex -7.585186e+000 -6.470476e-001 5.000000e+000
    endloop
endfacet
endsolid Stopper
